<svg xmlns="http://www.w3.org/2000/svg" width="256" height="256" viewBox="0 0 256 256" fill="none">
  <title>TechnoKonvert animated loader — transparent color cycle</title>
  <defs>
    <style>
      .ring path {
        stroke-width: 14;
        stroke-linecap: round;
        fill: none;
      }
      .seg0 { stroke: #1D71B8; animation: seg0 3.6s steps(8, end) infinite; }
      @keyframes seg0 {
  0.000% { stroke: #1D71B8; }
  12.500% { stroke: #D9E8F6; }
  25.000% { stroke: #1B2848; }
  37.500% { stroke: #D9E8F6; }
  50.000% { stroke: #D9E8F6; }
  62.500% { stroke: #E4032E; }
  75.000% { stroke: #D9E8F6; }
  87.500% { stroke: #D9E8F6; }
}
      .seg1 { stroke: #D9E8F6; animation: seg1 3.6s steps(8, end) infinite; }
      @keyframes seg1 {
  0.000% { stroke: #D9E8F6; }
  12.500% { stroke: #1D71B8; }
  25.000% { stroke: #D9E8F6; }
  37.500% { stroke: #1B2848; }
  50.000% { stroke: #D9E8F6; }
  62.500% { stroke: #D9E8F6; }
  75.000% { stroke: #E4032E; }
  87.500% { stroke: #D9E8F6; }
}
      .seg2 { stroke: #D9E8F6; animation: seg2 3.6s steps(8, end) infinite; }
      @keyframes seg2 {
  0.000% { stroke: #D9E8F6; }
  12.500% { stroke: #D9E8F6; }
  25.000% { stroke: #1D71B8; }
  37.500% { stroke: #D9E8F6; }
  50.000% { stroke: #1B2848; }
  62.500% { stroke: #D9E8F6; }
  75.000% { stroke: #D9E8F6; }
  87.500% { stroke: #E4032E; }
}
      .seg3 { stroke: #E4032E; animation: seg3 3.6s steps(8, end) infinite; }
      @keyframes seg3 {
  0.000% { stroke: #E4032E; }
  12.500% { stroke: #D9E8F6; }
  25.000% { stroke: #D9E8F6; }
  37.500% { stroke: #1D71B8; }
  50.000% { stroke: #D9E8F6; }
  62.500% { stroke: #1B2848; }
  75.000% { stroke: #D9E8F6; }
  87.500% { stroke: #D9E8F6; }
}
      .seg4 { stroke: #D9E8F6; animation: seg4 3.6s steps(8, end) infinite; }
      @keyframes seg4 {
  0.000% { stroke: #D9E8F6; }
  12.500% { stroke: #E4032E; }
  25.000% { stroke: #D9E8F6; }
  37.500% { stroke: #D9E8F6; }
  50.000% { stroke: #1D71B8; }
  62.500% { stroke: #D9E8F6; }
  75.000% { stroke: #1B2848; }
  87.500% { stroke: #D9E8F6; }
}
      .seg5 { stroke: #D9E8F6; animation: seg5 3.6s steps(8, end) infinite; }
      @keyframes seg5 {
  0.000% { stroke: #D9E8F6; }
  12.500% { stroke: #D9E8F6; }
  25.000% { stroke: #E4032E; }
  37.500% { stroke: #D9E8F6; }
  50.000% { stroke: #D9E8F6; }
  62.500% { stroke: #1D71B8; }
  75.000% { stroke: #D9E8F6; }
  87.500% { stroke: #1B2848; }
}
      .seg6 { stroke: #1B2848; animation: seg6 3.6s steps(8, end) infinite; }
      @keyframes seg6 {
  0.000% { stroke: #1B2848; }
  12.500% { stroke: #D9E8F6; }
  25.000% { stroke: #D9E8F6; }
  37.500% { stroke: #E4032E; }
  50.000% { stroke: #D9E8F6; }
  62.500% { stroke: #D9E8F6; }
  75.000% { stroke: #1D71B8; }
  87.500% { stroke: #D9E8F6; }
}
      .seg7 { stroke: #D9E8F6; animation: seg7 3.6s steps(8, end) infinite; }
      @keyframes seg7 {
  0.000% { stroke: #D9E8F6; }
  12.500% { stroke: #1B2848; }
  25.000% { stroke: #D9E8F6; }
  37.500% { stroke: #D9E8F6; }
  50.000% { stroke: #E4032E; }
  62.500% { stroke: #D9E8F6; }
  75.000% { stroke: #D9E8F6; }
  87.500% { stroke: #1D71B8; }
}
      .logo-pulse {
  transform-origin: 128px 128px;
  animation: logoPulse 3.6s ease-in-out infinite;
}
@keyframes logoPulse {
  0%, 100% { transform: scale(1); opacity: 1; }
  50% { transform: scale(1.035); opacity: 0.92; }
}
    </style>
  </defs>

  <g class="ring">
    <path class="seg0" d="M 107.305 38.358 A 92 92 0 0 1 148.695 38.358"/>
    <path class="seg1" d="M 176.753 49.980 A 92 92 0 0 1 206.020 79.247"/>
    <path class="seg2" d="M 217.642 107.305 A 92 92 0 0 1 217.642 148.695"/>
    <path class="seg3" d="M 206.020 176.753 A 92 92 0 0 1 176.753 206.020"/>
    <path class="seg4" d="M 148.695 217.642 A 92 92 0 0 1 107.305 217.642"/>
    <path class="seg5" d="M 79.247 206.020 A 92 92 0 0 1 49.980 176.753"/>
    <path class="seg6" d="M 38.358 148.695 A 92 92 0 0 1 38.358 107.305"/>
    <path class="seg7" d="M 49.980 79.247 A 92 92 0 0 1 79.247 49.980"/>
  </g>

  <g class="logo-pulse">
    <svg x="75" y="75" width="106" height="106" viewBox="150 274 278 279">
      <path transform="matrix(1,0,0,-1,0,841.89)" d="M0 841.89H595.276V0H0Z"/>
      <path transform="matrix(1,0,0,-1,381.5871,357.9313)" d="M0 0 23.649-10.332-5.428-77.148C1.417-80.24 7.526-83.004 13.143-85.55L46.038-9.958C48.48-4.344 45.905 2.214 40.309 4.661L12.886 16.642C8.407 10.888 4.111 5.338 0 0" fill="#2C467E"/>
      <path transform="matrix(1,0,0,-1,365.9903,489.9301)" d="M0 0C-4.482 .766-8.666 1.518-12.709 2.278L-31.076-39.927-192.347 30.53-177.227 65.278C-183.648 69.216-189.337 72.944-194.573 76.495L-214.738 30.154C-217.179 24.54-214.604 17.985-209.008 15.538L-30.696-62.365C-29.456-62.908-28.146-63.211-26.825-63.275-26.639-63.284-26.453-63.289-26.267-63.289-24.902-63.286-23.532-63.027-22.218-62.511-19.46-61.424-17.291-59.33-16.113-56.62L8.031-1.138C5.345-.741 2.709-.462 0 0" fill="#2C467E"/>
      <path transform="matrix(1,0,0,-1,198.0073,361.9124)" d="M0 0C4.129-2.144 9.111-4.629 14.995-7.032L45.951 64.108 113.646 34.534C117.908 39.464 121.006 43.083 121.095 43.187 121.667 43.886 124.221 46.823 128.527 50.303L45.578 86.542C44.136 87.172 42.631 87.469 41.148 87.466H41.147C36.879 87.458 32.799 84.966 30.988 80.801L-3.412 1.744C-2.296 1.179-1.192 .621 0 0" fill="#2C467E"/>
      <path transform="matrix(1,0,0,-1,396.7084,312.57313)" d="M0 0C-79.176-99.39-79.671-106.052-79.835-108.254-80.308-114.652-72.685-118.365-40.313-133.061L-29.406-138.025C-3.542-149.847 17.622-159.602 30.28-165.532 27.982-165.639 25.249-165.711 22.073-165.711 17.986-165.711 13.665-165.589 9.231-165.349-2.886-164.691-15.59-163.204-28.527-160.928-65.21-154.477-84.062-149.036-129.387-131.819-184.832-110.759-223.911-80.759-238.626-69.463L-239.011-69.168C-241.683-67.117-243.218-65.618-244.092-64.613-243.867-64.578-243.617-64.544-243.341-64.512-240.722-64.214-239.059-64.11-237.583-64.018-233.297-63.751-231.146-63.617-217.76-60.032-217.548-59.975-217.317-59.947-217.057-59.947-216.986-59.947-216.913-59.949-216.838-59.953-214.444-60.083-210.379-62.218-205.669-64.692-195.952-69.796-181.267-77.508-157.652-81.373-154.898-81.823-152.178-82.124-149.568-82.265-148.373-82.33-147.175-82.363-146.008-82.363-123.505-82.363-111.832-70.36-105.562-63.911L-105.495-63.842C-104.712-63.037-104.035-62.341-103.413-61.75-93.709-52.528-64.593-18.82-64.277-18.453-64.17-18.325-53.366-5.569-34.906-3.538-21.089-2.017-8.806-.818 0 0" fill="#2C467E"/>
    </svg>
  </g>
</svg>
